<svg xmlns="http://www.w3.org/2000/svg" viewBox="0 0 32 32">
  <!-- Dark background -->
  <rect width="32" height="32" rx="6" fill="#1e1e1e"/>

  <!-- Saw blade with 10 teeth (golden amber) -->
  <path fill="#C8921A" d="
    M 14.59,7.11
    L 16,4
    L 17.41,7.11
    A 9,9 0 0 1 20.09,7.98
    L 23.05,6.29
    L 22.36,9.64
    A 9,9 0 0 1 24.02,11.91
    L 27.41,12.29
    L 24.89,14.59
    A 9,9 0 0 1 24.89,17.41
    L 27.41,19.71
    L 24.02,20.09
    A 9,9 0 0 1 22.36,22.36
    L 23.05,25.71
    L 20.09,24.02
    A 9,9 0 0 1 17.41,24.89
    L 16,28
    L 14.59,24.89
    A 9,9 0 0 1 11.91,24.02
    L 8.95,25.71
    L 9.64,22.36
    A 9,9 0 0 1 7.98,20.09
    L 4.59,19.71
    L 7.11,17.41
    A 9,9 0 0 1 7.11,14.59
    L 4.59,12.29
    L 7.98,11.91
    A 9,9 0 0 1 9.64,9.64
    L 8.95,6.29
    L 11.91,7.98
    A 9,9 0 0 1 14.59,7.11
    Z
  "/>

  <!-- Center hole -->
  <circle cx="16" cy="16" r="4" fill="#1e1e1e"/>

  <!-- Center pin -->
  <circle cx="16" cy="16" r="1.5" fill="#C8921A"/>
</svg>
